<svg xmlns="http://www.w3.org/2000/svg" xmlns:xlink="http://www.w3.org/1999/xlink" width="492" height="293" fill="none" xmlns:v="https://vecta.io/nano"><g fill="#8b9d36"><path d="M81.74 277.645l-.734-.441c.206-.342 20.657-34.426 23.84-42.918l.802.301c-3.212 8.565-23.065 41.654-23.908 43.058z"/><path d="M98.316 216.414a36.78 36.78 0 0 1 1.977 6.626c.459 2.219.796 4.462 1.01 6.718a60.8 60.8 0 0 1 .278 6.788c-.013 2.31-.246 4.614-.698 6.88a36.34 36.34 0 0 1-1.981-6.626 60.91 60.91 0 0 1-1.006-6.718 62.03 62.03 0 0 1-.274-6.788 36.7 36.7 0 0 1 .693-6.88zm-7.547 10.32a35.08 35.08 0 0 1 2.565 6.248 59.2 59.2 0 0 1 1.612 6.43 58.12 58.12 0 0 1 .889 6.57 34.68 34.68 0 0 1-.074 6.754 34.67 34.67 0 0 1-2.57-6.247 57.96 57.96 0 0 1-1.607-6.431 59.03 59.03 0 0 1-.885-6.57 35.11 35.11 0 0 1 .069-6.754zM86.61 238.75c.928 1.854 1.66 3.8 2.183 5.807a49.68 49.68 0 0 1 1.222 5.944 48.62 48.62 0 0 1 .494 6.048c.06 2.073-.1 4.147-.476 6.187a29.38 29.38 0 0 1-2.188-5.807 48.53 48.53 0 0 1-1.217-5.945 49.43 49.43 0 0 1-.49-6.048 29.69 29.69 0 0 1 .472-6.186zm-5.237 11.993a22.76 22.76 0 0 1 2.214 4.942c.539 1.67.959 3.377 1.257 5.107a36.58 36.58 0 0 1 .533 5.232 22.54 22.54 0 0 1-.433 5.399 22.51 22.51 0 0 1-2.219-4.941 36.47 36.47 0 0 1-1.253-5.108 37.19 37.19 0 0 1-.528-5.233c-.072-1.81.072-3.622.429-5.398zm-4.62 7.496c.951 1.347 1.736 2.804 2.337 4.339a35.4 35.4 0 0 1 1.469 4.501c.385 1.52.681 3.062.887 4.616l.243 2.357a17.45 17.45 0 0 0 .258 2.413c-.198-.106-.388-.226-.568-.359l-.461-.462c-.294-.315-.564-.653-.807-1.009-.468-.687-.883-1.409-1.24-2.159a24.05 24.05 0 0 1-1.628-4.553c-.396-1.555-.652-3.141-.766-4.741-.138-1.653-.045-3.316.276-4.943zm26.051-18.504c1.553-1.703 3.3-3.218 5.206-4.515a48.2 48.2 0 0 1 5.754-3.431 47.41 47.41 0 0 1 6.169-2.612c2.173-.77 4.43-1.28 6.723-1.518a29.15 29.15 0 0 1-5.203 4.52 47.52 47.52 0 0 1-5.757 3.426c-1.995 1.011-4.057 1.882-6.172 2.607-2.173.769-4.428 1.28-6.72 1.523zm-5.114 9.553c1.986-1.625 4.139-3.034 6.421-4.204a60.39 60.39 0 0 1 6.848-3.068c2.342-.886 4.737-1.623 7.171-2.207 2.489-.624 5.038-.979 7.602-1.059-1.983 1.628-4.135 3.039-6.418 4.209a59.43 59.43 0 0 1-6.85 3.062c-2.344.881-4.739 1.617-7.173 2.201a36.32 36.32 0 0 1-7.601 1.066zm-6.019 10.618a30.96 30.96 0 0 1 5.788-4.059c2.008-1.115 4.089-2.094 6.23-2.928a50.03 50.03 0 0 1 6.563-2.071c2.293-.58 4.645-.892 7.009-.93-1.765 1.573-3.707 2.937-5.786 4.064a50.06 50.06 0 0 1-6.232 2.922 50.94 50.94 0 0 1-6.565 2.067 30.96 30.96 0 0 1-7.007.935zm-4.757 8.172a23.2 23.2 0 0 1 5.084-3.348 36.95 36.95 0 0 1 5.446-2.19 36.41 36.41 0 0 1 5.722-1.314 22.98 22.98 0 0 1 6.087-.143 22.95 22.95 0 0 1-5.082 3.354 36.49 36.49 0 0 1-5.448 2.185 37.01 37.01 0 0 1-5.722 1.307 23.18 23.18 0 0 1-6.085.149z"/><path d="M83.158 275.412a30.52 30.52 0 0 1 5.588-4.247 50.27 50.27 0 0 1 6.07-3.132 49.27 49.27 0 0 1 6.435-2.288c2.255-.656 4.578-1.047 6.922-1.164a30.19 30.19 0 0 1-5.585 4.251 49.04 49.04 0 0 1-6.073 3.127 49.93 49.93 0 0 1-6.437 2.283 30.53 30.53 0 0 1-6.92 1.17zm21.307-39.743c-.312-2.282-.256-4.599.167-6.863a32.28 32.28 0 0 1 1.749-6.244c.783-2.02 1.77-3.955 2.946-5.775 1.227-1.951 2.761-3.69 4.545-5.149a21.27 21.27 0 0 1-.159 6.867 31.82 31.82 0 0 1-1.756 6.24c-.789 2.018-1.779 3.952-2.955 5.772-1.226 1.949-2.758 3.689-4.537 5.152z"/></g><g fill="#50661a"><path d="M78.598 279.044l-.856-.013c.038-2.339 1.053-57.471 12.08-74.933l.723.458c-10.899 17.259-11.938 73.918-11.948 74.488z"/><path d="M86.641 211.973a39.27 39.27 0 0 0 .257-7.717 69.43 69.43 0 0 0-.834-7.487c-.4-2.468-.943-4.913-1.582-7.337-.638-2.44-1.445-4.787-2.306-7.288a10.76 10.76 0 0 0-.552 1.919c-.138.644-.239 1.295-.302 1.95-.134 1.286-.192 2.578-.174 3.87a49.69 49.69 0 0 0 .697 7.586 55.17 55.17 0 0 0 1.755 7.385 34.72 34.72 0 0 0 3.042 7.119zm13.555-34.912a27.73 27.73 0 0 0-4.828 6.203c-1.272 2.169-2.355 4.443-3.235 6.798-.888 2.353-1.568 4.779-2.031 7.25a27.43 27.43 0 0 0-.424 7.851 27.44 27.44 0 0 0 4.835-6.2 42.87 42.87 0 0 0 3.228-6.801 43.62 43.62 0 0 0 2.023-7.253 27.74 27.74 0 0 0 .432-7.848zm9.087 14.051a63.84 63.84 0 0 0-6.357 5.858l-5.674 6.213-5.449 6.254-2.814 2.99a12.85 12.85 0 0 1-3.325 2.512c.755.132 1.529.113 2.276-.057.754-.151 1.489-.382 2.193-.69a21.18 21.18 0 0 0 3.905-2.24c2.365-1.731 4.523-3.728 6.434-5.952 1.899-2.178 3.609-4.515 5.112-6.984 1.546-2.477 2.788-5.13 3.7-7.904zm0 14.051c-2.772 1.385-5.416 3.011-7.902 4.861-2.46 1.799-4.826 3.723-7.09 5.763a88.06 88.06 0 0 0-6.475 6.446c-2.1 2.279-3.993 4.741-5.655 7.356 2.775-1.379 5.421-3.005 7.906-4.856a87.82 87.82 0 0 0 7.086-5.767c2.266-2.039 4.425-4.192 6.471-6.45a52.64 52.64 0 0 0 5.659-7.353zm-.924 11.025a52.1 52.1 0 0 0-7.984 4.617 88.59 88.59 0 0 0-7.195 5.541c-2.307 1.963-4.509 4.046-6.599 6.239a51.47 51.47 0 0 0-5.802 7.171 51.39 51.39 0 0 0 7.988-4.613 86.61 86.61 0 0 0 7.192-5.545c2.304-1.967 4.505-4.051 6.595-6.243 2.144-2.213 4.087-4.611 5.806-7.167zm-.616 11.784a48.38 48.38 0 0 0-7.997 3.88 81.99 81.99 0 0 0-7.271 4.853c-2.34 1.74-4.583 3.605-6.721 5.589a47.76 47.76 0 0 0-5.988 6.571c2.781-1.041 5.46-2.338 8-3.875a80.55 80.55 0 0 0 7.267-4.858c2.337-1.744 4.579-3.611 6.717-5.594 2.195-2 4.2-4.198 5.992-6.566zm.616 8.549a53.8 53.8 0 0 0-8.368 4.249 91.69 91.69 0 0 0-7.633 5.216 89.93 89.93 0 0 0-7.078 5.948 53.22 53.22 0 0 0-6.336 6.924 53.22 53.22 0 0 0 8.371-4.244 90.13 90.13 0 0 0 7.63-5.221l7.074-5.952a53.91 53.91 0 0 0 6.34-6.92zm2.156 8.011a70.18 70.18 0 0 0-8.746 4.854 134.51 134.51 0 0 0-8.083 5.619 167.39 167.39 0 0 0-7.69 6.084l-7.552 6.401a21.1 21.1 0 0 0 4.897-1.43 47.86 47.86 0 0 0 4.547-2.189 74.67 74.67 0 0 0 8.357-5.439c2.652-1.988 5.187-4.128 7.592-6.408 2.451-2.287 4.686-4.795 6.677-7.492zm2.619 8.318c-3.272 1.272-6.446 2.78-9.498 4.514a133.12 133.12 0 0 0-8.852 5.414 148.6 148.6 0 0 0-8.421 6.023l-4.066 3.224c-1.298 1.152-2.678 2.208-4.127 3.161.909.001 1.811-.154 2.668-.458.86-.255 1.695-.565 2.52-.887 1.647-.654 3.238-1.401 4.798-2.194a90.93 90.93 0 0 0 8.996-5.308 102.78 102.78 0 0 0 8.374-6.206 63.62 63.62 0 0 0 7.607-7.283zm-29.147-31.09a42.53 42.53 0 0 0-1.228-8.238 71.58 71.58 0 0 0-2.367-7.821 70.33 70.33 0 0 0-3.231-7.505c-1.223-2.5-2.69-4.873-4.381-7.084a42.13 42.13 0 0 0 1.222 8.24 70.54 70.54 0 0 0 2.373 7.818 71.56 71.56 0 0 0 3.236 7.504c1.224 2.499 2.689 4.872 4.376 7.086zm-1.827 9.619c-.525-2.765-1.316-5.472-2.364-8.084-1.004-2.569-2.151-5.079-3.438-7.518a72 72 0 0 0-4.251-7.089 43.04 43.04 0 0 0-5.335-6.518 43.05 43.05 0 0 0 2.359 8.086 72.12 72.12 0 0 0 3.443 7.515 73.24 73.24 0 0 0 4.256 7.087 43.58 43.58 0 0 0 5.33 6.521zm-1.381 9.301a47.64 47.64 0 0 0-3.46-8.115 80.63 80.63 0 0 0-4.466-7.436 79.32 79.32 0 0 0-5.228-6.921c-1.882-2.269-3.972-4.356-6.243-6.235a47.1 47.1 0 0 0 3.456 8.119 79.28 79.28 0 0 0 4.471 7.433 80.59 80.59 0 0 0 5.232 6.917c1.882 2.268 3.97 4.357 6.238 6.238zm-1.013 10.263a61.51 61.51 0 0 0-4.954-8.71 102.6 102.6 0 0 0-5.894-7.942 105.12 105.12 0 0 0-6.605-7.36 60.49 60.49 0 0 0-7.554-6.584c1.406 3.037 3.062 5.951 4.949 8.714 1.841 2.748 3.807 5.394 5.898 7.938a107.79 107.79 0 0 0 6.61 7.356 61.34 61.34 0 0 0 7.55 6.588zm-.822 10.642a62.03 62.03 0 0 0-5.867-8.188 103.26 103.26 0 0 0-6.722-7.325c-2.346-2.335-4.803-4.56-7.369-6.674a61.13 61.13 0 0 0-8.233-5.804 61.1 61.1 0 0 0 5.862 8.192c2.128 2.555 4.37 4.995 6.726 7.321a108.95 108.95 0 0 0 7.373 6.67c2.581 2.156 5.333 4.098 8.229 5.808z"/><path d="M78.445 268.408c-1.919-2.488-4.052-4.804-6.374-6.921l-7.106-5.953c-2.462-1.87-5.019-3.612-7.66-5.22a53.44 53.44 0 0 0-8.399-4.242 53.5 53.5 0 0 0 6.37 6.926 90.51 90.51 0 0 0 7.109 5.948 91.95 91.95 0 0 0 7.664 5.215 54.07 54.07 0 0 0 8.396 4.247zm-.274 5.7a57.22 57.22 0 0 0-7.446-6.192l-8.049-5.138-8.505-4.341a56.49 56.49 0 0 0-9.114-3.276 56.72 56.72 0 0 0 7.444 6.197 94.42 94.42 0 0 0 8.052 5.133l8.508 4.335c2.939 1.349 5.987 2.447 9.111 3.282zm.212 3.697a61.86 61.86 0 0 0-8.712-5.019 105.62 105.62 0 0 0-9.134-3.88 106.25 106.25 0 0 0-9.453-3.019 60.97 60.97 0 0 0-9.88-1.869c2.76 1.912 5.673 3.592 8.71 5.024a101.83 101.83 0 0 0 9.136 3.875c3.099 1.146 6.248 2.158 9.455 3.013a61.86 61.86 0 0 0 9.878 1.875z"/></g><g fill="#5e7c24"><path d="M76.886 277.51c-.843-1.404-20.696-34.494-23.907-43.058l.802-.301c3.183 8.492 23.633 42.575 23.839 42.918l-.733.441z"/><path d="M60.267 216.414a36.77 36.77 0 0 0-1.977 6.626c-.459 2.219-.797 4.462-1.01 6.718a60.73 60.73 0 0 0-.278 6.788 36.27 36.27 0 0 0 .698 6.88 36.26 36.26 0 0 0 1.981-6.626 60.91 60.91 0 0 0 1.006-6.718 62.03 62.03 0 0 0 .274-6.788 36.7 36.7 0 0 0-.693-6.88zm7.547 10.32c-1.054 1.995-1.913 4.088-2.565 6.248a58.85 58.85 0 0 0-1.612 6.43 58.03 58.03 0 0 0-.89 6.57 34.69 34.69 0 0 0 .074 6.754 34.67 34.67 0 0 0 2.57-6.247 57.96 57.96 0 0 0 1.607-6.431 59.03 59.03 0 0 0 .885-6.57 35.12 35.12 0 0 0-.069-6.754zm4.159 12.016a29.74 29.74 0 0 0-2.184 5.807 49.29 49.29 0 0 0-1.222 5.944 48.64 48.64 0 0 0-.494 6.048 29.39 29.39 0 0 0 .476 6.187 29.38 29.38 0 0 0 2.188-5.807 48.53 48.53 0 0 0 1.217-5.945 49.43 49.43 0 0 0 .49-6.048 29.69 29.69 0 0 0-.472-6.186zm5.237 11.993a22.76 22.76 0 0 0-2.214 4.942c-.539 1.67-.959 3.377-1.257 5.107a36.44 36.44 0 0 0-.533 5.232 22.52 22.52 0 0 0 .433 5.399 22.51 22.51 0 0 0 2.219-4.941 36.43 36.43 0 0 0 1.253-5.108 37.19 37.19 0 0 0 .528-5.233c.072-1.81-.072-3.622-.429-5.398zm4.62 7.496a20.51 20.51 0 0 0-2.337 4.339 35.4 35.4 0 0 0-1.469 4.501c-.385 1.52-.681 3.062-.888 4.616l-.243 2.357c-.03.809-.117 1.616-.258 2.413.198-.106.388-.226.568-.359l.461-.462c.294-.315.564-.653.807-1.009a16.33 16.33 0 0 0 1.241-2.159 24.06 24.06 0 0 0 1.628-4.553c.396-1.555.652-3.141.766-4.741.138-1.653.045-3.316-.276-4.943zm-26.051-18.504c-1.553-1.703-3.3-3.218-5.206-4.515a48.2 48.2 0 0 0-5.754-3.431 47.4 47.4 0 0 0-6.169-2.612 29.13 29.13 0 0 0-6.723-1.518 29.15 29.15 0 0 0 5.203 4.52 47.48 47.48 0 0 0 5.757 3.426 48.25 48.25 0 0 0 6.172 2.607c2.173.769 4.428 1.28 6.72 1.523zm5.114 9.553c-1.986-1.625-4.138-3.034-6.421-4.204-2.217-1.163-4.504-2.188-6.848-3.068-2.341-.886-4.736-1.623-7.171-2.207-2.489-.624-5.037-.979-7.602-1.059a35.94 35.94 0 0 0 6.418 4.209 59.35 59.35 0 0 0 6.85 3.062 60.46 60.46 0 0 0 7.173 2.201 36.31 36.31 0 0 0 7.6 1.066zm6.019 10.618a30.96 30.96 0 0 0-5.788-4.059c-2.008-1.115-4.089-2.094-6.23-2.928a50.07 50.07 0 0 0-6.563-2.071 30.58 30.58 0 0 0-7.009-.93c1.765 1.573 3.707 2.937 5.786 4.064a50.06 50.06 0 0 0 6.232 2.922c2.139.836 4.333 1.527 6.566 2.067a30.96 30.96 0 0 0 7.007.935zm4.757 8.172a23.22 23.22 0 0 0-5.084-3.348c-1.755-.873-3.576-1.606-5.446-2.19-1.869-.591-3.782-1.031-5.721-1.314a22.98 22.98 0 0 0-6.087-.143 22.95 22.95 0 0 0 5.082 3.354 36.42 36.42 0 0 0 5.448 2.185c1.872.581 3.783 1.024 5.722 1.307a23.18 23.18 0 0 0 6.086.149z"/><path d="M75.425 275.412a30.52 30.52 0 0 0-5.588-4.247c-1.95-1.18-3.978-2.227-6.07-3.132a49.22 49.22 0 0 0-6.435-2.288 30.15 30.15 0 0 0-6.922-1.164 30.2 30.2 0 0 0 5.585 4.251 49.11 49.11 0 0 0 6.073 3.127 49.93 49.93 0 0 0 6.437 2.283 30.53 30.53 0 0 0 6.92 1.17zm-21.308-39.743c.313-2.282.256-4.599-.167-6.863a32.33 32.33 0 0 0-1.748-6.244 31.84 31.84 0 0 0-2.947-5.775 21.29 21.29 0 0 0-4.544-5.149 21.27 21.27 0 0 0 .159 6.867 31.84 31.84 0 0 0 1.756 6.24c.789 2.018 1.779 3.952 2.955 5.772a21.5 21.5 0 0 0 4.537 5.152z"/></g><path d="M187.471 76.345l-26.28 1.231-26.291.748-26.298.364a1024.24 1024.24 0 0 1-26.309-.126l26.28-1.234 26.291-.745 26.298-.361 26.309.123zm-70.535 26.349l-26.281 1.232-26.29.747-26.298.364a1025.6 1025.6 0 0 1-26.309-.125l26.28-1.235 26.291-.745 26.299-.361 26.309.123zm30.147 29.489l-26.28 1.231-26.291.748-26.299.364a1021.06 1021.06 0 0 1-26.309-.126l26.28-1.234 26.29-.745 26.299-.361 26.309.123z" fill="#ebc136"/><path d="M464.732 279.909H34.46a.87.87 0 0 1-.871-.872.87.87 0 0 1 .255-.616c.163-.163.385-.255.616-.255h430.272c.231 0 .452.092.616.255s.255.385.255.616a.87.87 0 0 1-.871.872z" fill="#8c8686"/><path d="M319.484 125.829c8.409 0 8.423-13.071 0-13.071-8.409 0-8.423 13.071 0 13.071z" fill="#6f56a5"/><path d="M248.193 16.138a16.9 16.9 0 0 1 7.901.609c1.194.412 5.563 1.919 7.721 6.026.82 1.559 1.018 3.442 1.416 7.208.247 2.352 1.168 4.03 1.191 6.901a24.26 24.26 0 0 1-1.074 6.86c-1.026 3.48-.329 5.446-.85 6.099-2.099 2.633-8.557.636-8.625 4.049-.041 2.107 3.591 11.172 3.54 13.64-.12 5.752-9.774-.184-15.593-8.714-.264-.387-4.211-2.653-3.832-6.382.203-1.992 1.813-11.347 1.64-12.55-.624-4.351-2.823-4.863-4.598-10.113a8.19 8.19 0 0 1-.39-4.122c.226-1.385.803-2.688 1.676-3.786 2.519-3.008 6.015-5.034 9.877-5.725z" fill="#d19e8a"/><path d="M264.365 34.781c.488-.004.88-.5.874-1.107s-.405-1.096-.893-1.092-.88.5-.875 1.107.405 1.096.894 1.092zm-7.973.069c.489-.004.88-.5.875-1.107s-.405-1.096-.893-1.092-.881.5-.875 1.107.405 1.096.893 1.092z" fill="#0a0709"/><path d="M260.134 31.749c.108-.001.213-.033.303-.093.779-.548 1.706-.848 2.658-.86a4.72 4.72 0 0 1 2.679.793.56.56 0 0 0 .78-.118c.087-.119.124-.267.103-.414a.56.56 0 0 0-.219-.366 5.92 5.92 0 0 0-6.618.034.56.56 0 0 0 .314 1.024zm-8.264.071a.55.55 0 0 0 .302-.093c.782-.542 1.708-.838 2.659-.851a4.77 4.77 0 0 1 2.679.782.56.56 0 0 0 .197.093c.071.018.145.021.217.011a.56.56 0 0 0 .205-.073c.063-.037.118-.087.161-.146a.54.54 0 0 0 .093-.197.55.55 0 0 0 .011-.217.58.58 0 0 0-.073-.205.55.55 0 0 0-.146-.161 5.93 5.93 0 0 0-6.619.034.56.56 0 0 0-.217.277.55.55 0 0 0-.008.352.56.56 0 0 0 .539.395z" fill="#494752"/><g fill="#b5806d"><path d="M259.376 31.983a4.17 4.17 0 0 0 .126 2.831 9.1 9.1 0 0 0 1.372 2.513l.466.522c.057.051.103.114.136.183s.05.145.053.222a1.43 1.43 0 0 1-.505.968 3.55 3.55 0 0 1-2.482.693 3.11 3.11 0 0 0 1.45.208c.493-.047.968-.211 1.385-.479a1.91 1.91 0 0 0 .564-.603 1.92 1.92 0 0 0 .256-.785 1.24 1.24 0 0 0-.33-.85l-.45-.527a12.88 12.88 0 0 1-1.416-2.29 5.34 5.34 0 0 1-.625-2.606zm-14.487.496c-.346-.1-.715-.078-1.046.062a2.57 2.57 0 0 0-.881.581 3.01 3.01 0 0 0-.587.851c-.145.314-.226.653-.237.999.246-.218.479-.451.697-.697l.626-.656c.205-.212.422-.412.649-.6a5.28 5.28 0 0 1 .779-.54z"/><path d="M244.21 37.071a2.66 2.66 0 0 0 .475-1.014c.085-.368.09-.75.015-1.12a2.86 2.86 0 0 0-.403-1.053 2.34 2.34 0 0 0-.789-.786c.203.643.37 1.297.498 1.959.108.667.176 1.339.204 2.014z"/></g><path d="M249.654 41.124s-1.519-6.312-1.266-8.125c.352-2.526.529-3.79.218-4.814-.498-1.639.301-1.86 1.316-3.635.953-1.666 3.959-.35 4.704-.632 2.091-.794 2.006-1.676 3.424-1.777 1.453-.103 2.518-.496 3.465.434.967.95 2.747 3.481 3.177 3.036a8.28 8.28 0 0 0 1.586-4.193c-.002-1.494-.368-2.965-1.066-4.285-.351-.763-1.658-3.604-4.334-4.343-1.541-.425-1.83.318-5.154.543-3.448.234-3.562-.537-5.364-.008-1.995.586-1.911 1.545-5.312 3.442a35.32 35.32 0 0 1-3.476 1.639c-4.275 1.854-4.838 1.568-5.817 2.53-2.11 2.074-1.732 5.606-1.641 6.46.257 2.403 1.202 3.117 3.277 6.952 3.285 6.073 2.658 8.642 3.851 9.487.585.415 3.633-1.792 3.61-2.867-.031-1.408-1.049-1.844-2.262-3.87-.846-1.416-2.063-3.448-1.388-5.306.408-1.123.876-.821 2.037-.723 1.575.133 2.368 2.319 3.012 3.922a8.6 8.6 0 0 1 .607 3.658c-.143 2.786 3.348 3.579 2.796 2.475z" fill="#2e2c33"/><path d="M256.74 43.817s3.511 3.219 6.597-.056l-6.597.056z" fill="#9d6d5c"/><path d="M257.523 60.184s6.169 17.84-17.42-8.661l-10.249 8.512c-2.124 1.794-3.589 4.246-4.163 6.966l-1.507 11.579c-1.909 14.673-1.922 29.532-.039 44.209l1.523 11.874 44.071 6.052c-2.479-8.488-3.943-17.24-4.361-26.074-.496-10.573.813-15.071.313-23.841a81.28 81.28 0 0 0-8.168-30.616z" fill="#ffba55"/><path d="M263.951 131.375l-2.413-1.308-2.353-1.384c-1.532-.965-2.997-2.033-4.383-3.199-1.388-1.153-2.643-2.456-3.743-3.887-.543-.721-1.027-1.485-1.446-2.284-.446-.793-.786-1.642-1.009-2.524a11.67 11.67 0 0 0 2.012 5.121c1.042 1.539 2.298 2.923 3.729 4.11 1.415 1.191 2.945 2.239 4.567 3.128l2.473 1.227 2.566 1z" fill="#e6952a"/><path d="M251.632 49.481c2.905 2.005 8.471 1.87 8.471 1.87l.018.13c-2.162.282-4.21.494-4.248 2.408.102 1.071.33 2.126.678 3.144-3.801-2.142-4.919-7.552-4.919-7.552z" fill="#b5806d"/><path d="M309.239 204.076l2.359 11.95 23.126 3.725-30.924 9.392-6.509-21.439 11.948-3.628z" fill="#d19e8a"/><path d="M338.149 219.863l-.022-.071c-.164-.542-.476-1.028-.901-1.404s-.945-.625-1.503-.722l-24.102-4.188c-.236-.041-.478.002-.685.122a1.02 1.02 0 0 0-.448.534l-2.434 6.679c-.087.237-.258.434-.481.552s-.481.15-.726.088l-5.669-1.421a1.02 1.02 0 0 0-.987.286c-.125.131-.212.293-.254.468a1.02 1.02 0 0 0 .017.532l2.82 9.288a1.02 1.02 0 0 0 .495.604c.239.127.518.154.777.076l33.423-10.15a1.02 1.02 0 0 0 .68-1.273z" fill="#251d1b"/><path d="M224.826 125.969s-7.042 31.218 6.416 30.658h51.165l13.784 55.637s5.299 2.162 9.9 1.199c3.16-.662 5.883-3.677 7.776-5.219 0 0-10.07-79.764-29.119-82.186-23.762-3.021-59.922-.089-59.922-.089z" fill="#808b49"/><path d="M282.407 156.627c1.18-1.481 2.233-3.058 3.151-4.714l1.251-2.496 1.221-2.651a8.54 8.54 0 0 1-.145 3.006 10.17 10.17 0 0 1-1.056 2.843 9.83 9.83 0 0 1-1.858 2.409 6.66 6.66 0 0 1-2.564 1.603z" fill="#5e7c24"/><path d="M241.478 71.408s1.996-4.758 28.119 32.765l-9.926 12.884s-14.411-11.861-20.939-22.1" fill="#ffba55"/><path d="M324.662 108.837l23.04-10.991 1.182 25.184-22.154-7.171-2.068-7.022z" fill="#8e6cd8"/><use xlink:href="#B" fill="#1e1d22"/><path d="M190.258 262.61c9.761 0 17.674-7.936 17.674-17.724s-7.913-17.724-17.674-17.724-17.675 7.935-17.675 17.724 7.914 17.724 17.675 17.724z" fill="#848384"/><path d="M189.586 249.326c3.333 0 3.338-5.18 0-5.18s-3.339 5.18 0 5.18z" fill="#fff"/><use xlink:href="#B" x="184.776" fill="#1e1d22"/><path d="M375.034 262.61c9.761 0 17.674-7.936 17.674-17.724s-7.913-17.724-17.674-17.724-17.675 7.935-17.675 17.724 7.913 17.724 17.675 17.724z" fill="#848384"/><path d="M374.361 251.964c6.728 0 6.739-10.456 0-10.456-6.727 0-6.738 10.456 0 10.456z" fill="#1e1d22"/><path d="M418.573 240.995s-31.038-15.563-86.216 5.188h-98.56s-32.762 20.75-87.94 5.187c0 0-6.897-12.104 10.346-38.042 0 0 10.346-29.396 17.243-34.583l95.079.049s-2.219 48.006 32.268 51.465 31.038-29.396 31.038-29.396l-4.565-72.712a135.35 135.35 0 0 0-.942-13.794c-.627-5.34-2.439-4.597-.283-3.516 3.448 1.729 37.354 38.507 44.251 90.383 0 0 39.659-5.188 48.281 39.771z" fill="#8e6cd8"/><path d="M370.292 201.224c-5.089 1.321-9.945 3.414-14.401 6.206a47.49 47.49 0 0 0-6.192 4.629c-1.943 1.682-3.722 3.546-5.312 5.565-1.629 1.993-3.079 4.125-4.334 6.373-.347.544-.63 1.125-.93 1.697-.289.578-.62 1.136-.875 1.731-.516 1.188-1.095 2.352-1.55 3.573-1.89 4.924-3.343 10.005-4.341 15.185a50.11 50.11 0 0 1 2.203-15.939c1.578-5.253 4.147-10.156 7.567-14.443 5.199-6.422 12.256-11.081 20.204-13.338a31.48 31.48 0 0 1 7.961-1.239zm-136.495 44.959a60.07 60.07 0 0 0 7.104-15.113c1.61-5.268 2.296-10.894 1.043-16.106a21.9 21.9 0 0 0-8.967-12.756c-.273-.194-.528-.412-.815-.589l-.861-.53c-.579-.348-1.131-.734-1.729-1.052-1.223-.597-2.378-1.293-3.673-1.784l-1.899-.799a19.42 19.42 0 0 0-1.874-.669 43.87 43.87 0 0 0-3.943-1.012 59.31 59.31 0 0 0-16.36-1.107 69.39 69.39 0 0 0-8.189 1.034c-2.71.511-5.382 1.216-8.037 1.989-10.626 3.482-20.57 8.773-29.394 15.639l3.144-2.82 3.291-2.656 3.407-2.518 3.529-2.36a78.94 78.94 0 0 1 15.312-7.438c5.406-1.898 11.028-3.111 16.735-3.613 5.742-.48 11.522-.139 17.168 1.011a46 46 0 0 1 4.206 1.116c.686.221 1.412.468 2.086.763l1.977.852c1.332.519 2.595 1.279 3.887 1.93.638.347 1.24.769 1.861 1.15.629.375 1.23.795 1.799 1.255a23.85 23.85 0 0 1 9.544 14.478 26.49 26.49 0 0 1 .23 8.721 38.53 38.53 0 0 1-2.138 8.326 54.94 54.94 0 0 1-3.672 7.678 50.42 50.42 0 0 1-4.772 6.98zm-64.126-66.07h94.092c5.714 0 10.346-5.258 10.346-11.743s-4.632-11.743-10.346-11.743h-94.092c-5.714 0-10.346 5.258-10.346 11.743s4.632 11.743 10.346 11.743zm52.746 28.131c-1.567 1.845-3.329 3.514-5.257 4.977-1.915 1.487-3.93 2.841-6.031 4.052-1.028.651-2.118 1.179-3.194 1.74-1.069.578-2.181 1.056-3.284 1.563l-1.665.734-1.699.646-3.414 1.249c-4.604 1.495-9.328 2.585-14.121 3.259-2.38.394-4.802.492-7.194.706a107.83 107.83 0 0 1-7.216-.008c2.353-.558 4.706-.94 7.04-1.408l3.485-.755c1.159-.251 2.327-.445 3.469-.763l3.447-.833c1.157-.236 2.277-.623 3.415-.928 1.128-.338 2.288-.568 3.401-.953l3.362-1.074c1.129-.334 2.221-.77 3.334-1.149l1.66-.594 1.635-.659c2.209-.813 4.34-1.806 6.487-2.772 1.06-.51 2.133-1.004 3.172-1.559l1.578-.807 1.545-.867c2.087-1.147 4.105-2.414 6.045-3.797zm4.033 11.406a33.29 33.29 0 0 1-5.257 4.977c-1.915 1.487-3.93 2.841-6.031 4.052-1.027.651-2.117 1.179-3.194 1.74-1.069.578-2.181 1.056-3.284 1.563l-1.665.734-1.699.646-3.414 1.249c-4.603 1.495-9.328 2.585-14.121 3.259-2.38.394-4.802.492-7.193.706a107.86 107.86 0 0 1-7.217-.008c2.353-.558 4.706-.94 7.04-1.408l3.485-.755c1.16-.251 2.327-.445 3.47-.763l3.446-.833c1.157-.236 2.277-.623 3.415-.928 1.128-.338 2.288-.568 3.401-.953l3.362-1.074c1.129-.334 2.221-.77 3.334-1.149l1.661-.594 1.634-.659c2.209-.813 4.34-1.806 6.487-2.772 1.06-.51 2.133-1.004 3.172-1.559l1.578-.807 1.545-.867a61.03 61.03 0 0 0 6.045-3.797z" fill="#6f56a5"/><path d="M348.763 123.035c2.16-.101 3.646-5.821 3.319-12.775s-2.341-12.51-4.501-12.409-3.645 5.822-3.319 12.776 2.342 12.51 4.501 12.408z" fill="#ffba55"/><path d="M347.581 97.852c-.269.077-.518.212-.73.395a1.92 1.92 0 0 0-.494.667 6.86 6.86 0 0 0-.614 1.55 20.62 20.62 0 0 0-.606 3.325c-.413 4.529-.198 9.093.639 13.563a20.59 20.59 0 0 0 .914 3.253 6.82 6.82 0 0 0 .756 1.486 1.92 1.92 0 0 0 .554.619c.227.163.488.274.763.325-.304.02-.609-.03-.89-.148a1.98 1.98 0 0 1-.73-.53 6.68 6.68 0 0 1-1.093-1.438c-.58-1.041-1.041-2.144-1.373-3.289a30.69 30.69 0 0 1-.656-14.014c.224-1.171.579-2.312 1.059-3.403a6.64 6.64 0 0 1 .953-1.533 1.96 1.96 0 0 1 .677-.596c.268-.144.567-.223.871-.232z" fill="#e6952a"/><path d="M338.255 124.5l-3.036-2.938-2.88-3.001-2.901-2.915c-.493-.464-1.013-.897-1.559-1.297a4.08 4.08 0 0 0-1.838-.83 3.36 3.36 0 0 1 2.17.199 9.83 9.83 0 0 1 1.927 1.037 20.48 20.48 0 0 1 3.25 2.802c.975 1.03 1.877 2.127 2.698 3.282a22.3 22.3 0 0 1 2.169 3.661z" fill="#6f56a5"/><path d="M205.809 153.798h-51.776a2.82 2.82 0 0 1-2.817-2.817v-37.926h57.409v37.926c0 .747-.296 1.463-.825 1.992s-1.244.825-1.991.825z" fill="#584432"/><g fill="#785a3f"><path d="M186.504 124.79c-.185-.284-.456-.292-.765-.301l-.106-.004a1.32 1.32 0 0 0-.089 0c-.125.002-.272.004-.345-.101-.086-.122-.078-.357-.071-.551l.003-.167c-.012-.452-.037-.931-.212-1.091-.131-.12-.525-.104-.887-.088l-.334.009h-7.723c-.156 0-.319-.012-.479-.025-.312-.024-.613-.047-.827.025-.311.106-.332.663-.351 1.188l-.002.028c-.016.433-.124.767-.48.733-.414-.038-.826-.05-1.013.324-.221.443-.175.906-.094 1.737l.037.379h13.857l.025-.291c.065-.747.121-1.398-.144-1.804z"/><path fill-rule="evenodd" d="M173.845 127.709l.645 8.784v.002l.349 4.771h.442l.101.88.224 1.831h.049c.45-.165 3.564-1.494 3.565-6.787-.001-.015 0-.03.001-.045h-.769a.17.17 0 0 1-.102-.035c-.03-.023-.051-.054-.06-.09a3.8 3.8 0 0 1-.181-.569 2.45 2.45 0 0 0-1.027 1.114c-.204-.481-.231-1.016-.075-1.514s.482-.925.925-1.209a6.26 6.26 0 0 1 1.627-4.184l.016-.014c.03-.027.069-.041.109-.042.023.001.046.006.068.015s.04.023.056.041a6.13 6.13 0 0 1 1.613 4.209 2.17 2.17 0 0 1 .94 1.204c.156.5.122 1.039-.094 1.517-.214-.47-.574-.86-1.027-1.114-.028.188-.079.372-.152.548-.025.075-.076.123-.127.123h-.82l.003.027v.002.005c.001.007.001.015 0 .023.011 5.444 3.322 6.68 3.601 6.775h.095c.025-.429.104-1.021.181-1.598l.139-1.113h.447l.438-5.997v-.001-.001l.556-7.676h-11.727c-.034.007-.032.062-.029.118zm5.839 2.893h-.001.002-.001z"/><path d="M215.576 103.911v5.157c.049 1.005-.303 1.989-.977 2.737s-1.617 1.197-2.622 1.252h-64.115a3.81 3.81 0 0 1-2.62-1.253c-.673-.748-1.023-1.731-.973-2.736v-5.157c-.049-1.003.302-1.986.975-2.732s1.615-1.195 2.618-1.249h64.115a3.81 3.81 0 0 1 3.599 3.981z"/></g><path d="M207.991 153.823h-34.148l-7.702-8.099c-.114-.126-.255-.226-.412-.292a1.18 1.18 0 0 0-.497-.094c-.17.005-.338.047-.491.123a1.18 1.18 0 0 0-.394.315 1.52 1.52 0 0 0-.349 1.004c.009.365.149.716.396.986l5.759 6.057h-9.187v-6.392c.018-.177-.001-.357-.057-.527a1.27 1.27 0 0 0-.266-.459c-.119-.132-.265-.238-.429-.311a1.27 1.27 0 0 0-.518-.11c-.179 0-.355.037-.519.11s-.309.179-.429.311a1.28 1.28 0 0 0-.265.459c-.056.17-.075.35-.057.527v6.392h-6.272c-.349.036-.671.199-.906.459a1.42 1.42 0 0 0 0 1.896 1.42 1.42 0 0 0 .906.459h6.272v6.392c-.018.177.001.357.057.527a1.28 1.28 0 0 0 .265.459c.12.132.266.238.429.311a1.29 1.29 0 0 0 .519.11c.178 0 .355-.038.518-.11s.31-.179.429-.311a1.27 1.27 0 0 0 .266-.459c.056-.17.075-.35.057-.527v-6.392h11.863l6.397 6.727a1.19 1.19 0 0 0 .413.292c.157.067.326.098.496.093s.338-.046.491-.122.287-.183.395-.315c.233-.282.357-.638.348-1.004s-.149-.716-.395-.986l-4.455-4.685h31.472c.348-.036.671-.2.905-.459s.365-.598.365-.948-.13-.688-.365-.948-.557-.423-.905-.459z" fill="#464646"/><path d="M269.303 104.903l39.307 5.241s16.054-5.958 19.324 2.491c.432 1.167.444 2.448.035 3.624-.98 2.939-3.298 8.743-4.996 3.9l-1.746-4.979s-6.025 4.173-11.847 2.104c-2.103-.748-30.253 4.736-45.429 1.034l-4.28-1.261 9.632-12.154z" fill="#d19e8a"/><path d="M241.478 71.408c.125-.214.406-.215.625-.193a3.7 3.7 0 0 1 .667.192 8.49 8.49 0 0 1 1.194.696 10.06 10.06 0 0 1 1.102.831l1.051.893 3.902 3.885c2.497 2.691 4.797 5.545 7.104 8.392 2.29 2.86 4.502 5.78 6.667 8.732 2.201 2.927 4.264 5.95 6.399 8.924l.307.428-.328.425-4.974 6.432-5.003 6.411-.424.543-.513-.437a124.74 124.74 0 0 1-5.69-5.143c-1.842-1.77-3.652-3.571-5.404-5.429s-3.452-3.767-5.037-5.771a56.31 56.31 0 0 1-4.391-6.263c1.483 2.064 3.076 4.048 4.772 5.941 1.699 1.886 3.477 3.698 5.268 5.494 1.805 1.783 3.666 3.509 5.556 5.201l5.76 4.957-.937.106 4.923-6.472 4.951-6.451-.02.852-6.31-8.954-6.432-8.861c-2.19-2.916-4.399-5.825-6.759-8.601-1.164-1.402-2.366-2.773-3.643-4.07-.306-.339-.658-.625-.986-.941a10.89 10.89 0 0 0-1.034-.883 8.33 8.33 0 0 0-1.117-.772c-.202-.097-.412-.176-.629-.235-.209-.036-.477-.061-.617.14z" fill="#e6952a"/><g fill="#616161"><use xlink:href="#C"/><use xlink:href="#C" y="7.534"/><path d="M165.46 147.956a1 1 0 0 0 .687-.306c.18-.187.281-.436.281-.696s-.101-.51-.281-.697-.427-.297-.687-.306c-.26.009-.506.119-.687.306a1 1 0 0 0 0 1.393 1 1 0 0 0 .687.306zm-5.713.686a1 1 0 0 0 .968-1.003 1 1 0 0 0-.968-1.002c-.26.009-.506.119-.687.306a1 1 0 0 0 0 1.393c.181.187.427.297.687.306z"/><use xlink:href="#D"/><path d="M179.921 155.889c.26-.009.506-.119.687-.306s.281-.436.281-.696-.101-.51-.281-.697-.427-.297-.687-.306c-.26.009-.506.119-.687.306s-.281.436-.281.697.101.509.281.696.427.297.687.306z"/><use xlink:href="#D" x="7.147" y="7.07"/><use xlink:href="#D" x="-19.96"/><use xlink:href="#D" x="34.13"/></g><defs ><path id="B" d="M190.258 279.037c18.808 0 34.055-15.29 34.055-34.151s-15.247-34.152-34.055-34.152-34.055 15.29-34.055 34.152 15.247 34.151 34.055 34.151z"/><path id="C" d="M159.747 156.155a1 1 0 0 0 .968-1.002 1 1 0 0 0-.968-1.003c-.26.009-.506.119-.687.306a1 1 0 0 0 0 1.394c.181.187.427.296.687.305z"/><path id="D" d="M172.774 156.155c.26-.009.506-.118.687-.305s.281-.437.281-.697-.101-.51-.281-.697-.427-.297-.687-.306c-.26.009-.506.119-.687.306s-.281.437-.281.697.101.51.281.697.427.296.687.305z"/></defs></svg>